<mxfile host="app.diagrams.net" modified="2024-02-20T02:47:27.062Z" agent="Mozilla/5.0 (Macintosh; Intel Mac OS X 10_15_7) AppleWebKit/537.36 (KHTML, like Gecko) Chrome/121.0.0.0 Safari/537.36" etag="c4lMLXQfqsj4kNqh8awh" version="23.1.5" type="github">
  <diagram name="第 1 页" id="YeKxlf5RUty8juzaiiqI">
    <mxGraphModel dx="850" dy="475" grid="1" gridSize="10" guides="1" tooltips="1" connect="1" arrows="1" fold="1" page="1" pageScale="1" pageWidth="827" pageHeight="1169" math="0" shadow="0">
      <root>
        <mxCell id="0" />
        <mxCell id="1" parent="0" />
        <mxCell id="mXtQZLbGaBVm7hcMh_mh-4" value="" style="rounded=0;whiteSpace=wrap;html=1;" vertex="1" parent="1">
          <mxGeometry x="70" y="300" width="710" height="250" as="geometry" />
        </mxCell>
        <mxCell id="mXtQZLbGaBVm7hcMh_mh-5" style="edgeStyle=orthogonalEdgeStyle;rounded=0;orthogonalLoop=1;jettySize=auto;html=1;" edge="1" parent="1" source="mXtQZLbGaBVm7hcMh_mh-1" target="mXtQZLbGaBVm7hcMh_mh-2">
          <mxGeometry relative="1" as="geometry" />
        </mxCell>
        <mxCell id="mXtQZLbGaBVm7hcMh_mh-1" value="robot" style="shape=umlActor;verticalLabelPosition=bottom;verticalAlign=top;html=1;" vertex="1" parent="1">
          <mxGeometry x="100" y="120" width="30" height="60" as="geometry" />
        </mxCell>
        <mxCell id="mXtQZLbGaBVm7hcMh_mh-12" style="edgeStyle=orthogonalEdgeStyle;rounded=0;orthogonalLoop=1;jettySize=auto;html=1;" edge="1" parent="1" source="mXtQZLbGaBVm7hcMh_mh-2" target="mXtQZLbGaBVm7hcMh_mh-10">
          <mxGeometry relative="1" as="geometry" />
        </mxCell>
        <mxCell id="mXtQZLbGaBVm7hcMh_mh-2" value="云服务" style="rounded=0;whiteSpace=wrap;html=1;" vertex="1" parent="1">
          <mxGeometry x="140" y="220" width="100" height="50" as="geometry" />
        </mxCell>
        <mxCell id="mXtQZLbGaBVm7hcMh_mh-8" value="&lt;font style=&quot;font-size: 24px;&quot;&gt;数&lt;br&gt;仓&lt;/font&gt;" style="text;html=1;align=center;verticalAlign=middle;whiteSpace=wrap;rounded=0;" vertex="1" parent="1">
          <mxGeometry x="70" y="380" width="40" height="70" as="geometry" />
        </mxCell>
        <mxCell id="mXtQZLbGaBVm7hcMh_mh-14" style="edgeStyle=orthogonalEdgeStyle;rounded=0;orthogonalLoop=1;jettySize=auto;html=1;" edge="1" parent="1" source="mXtQZLbGaBVm7hcMh_mh-10" target="mXtQZLbGaBVm7hcMh_mh-13">
          <mxGeometry relative="1" as="geometry" />
        </mxCell>
        <mxCell id="mXtQZLbGaBVm7hcMh_mh-10" value="hudi" style="rounded=1;whiteSpace=wrap;html=1;" vertex="1" parent="1">
          <mxGeometry x="130" y="410" width="120" height="60" as="geometry" />
        </mxCell>
        <mxCell id="mXtQZLbGaBVm7hcMh_mh-17" style="edgeStyle=orthogonalEdgeStyle;rounded=0;orthogonalLoop=1;jettySize=auto;html=1;" edge="1" parent="1" source="mXtQZLbGaBVm7hcMh_mh-13" target="mXtQZLbGaBVm7hcMh_mh-16">
          <mxGeometry relative="1" as="geometry" />
        </mxCell>
        <mxCell id="mXtQZLbGaBVm7hcMh_mh-13" value="批处理" style="shape=process;whiteSpace=wrap;html=1;backgroundOutline=1;" vertex="1" parent="1">
          <mxGeometry x="470" y="410" width="120" height="60" as="geometry" />
        </mxCell>
        <mxCell id="mXtQZLbGaBVm7hcMh_mh-15" value="T+1" style="text;html=1;align=center;verticalAlign=middle;whiteSpace=wrap;rounded=0;" vertex="1" parent="1">
          <mxGeometry x="320" y="400" width="60" height="30" as="geometry" />
        </mxCell>
        <mxCell id="mXtQZLbGaBVm7hcMh_mh-16" value="udesk" style="rounded=0;whiteSpace=wrap;html=1;" vertex="1" parent="1">
          <mxGeometry x="480" y="218" width="100" height="50" as="geometry" />
        </mxCell>
      </root>
    </mxGraphModel>
  </diagram>
</mxfile>
